<?xml version="1.0" standalone="no"?>
<!DOCTYPE svg PUBLIC "-//W3C//DTD SVG 20010904//EN"
 "http://www.w3.org/TR/2001/REC-SVG-20010904/DTD/svg10.dtd">
<svg version="1.0" xmlns="http://www.w3.org/2000/svg"
 width="640.000000pt" height="320.000000pt" viewBox="0 0 640.000000 320.000000"
 preserveAspectRatio="xMidYMid meet">

<g transform="translate(0.000000,320.000000) scale(0.100000,-0.100000)"
fill="#000000" stroke="none">
<path d="M1335 2881 c-40 -10 -81 -37 -105 -71 -21 -30 -29 -66 -201 -875
-175 -824 -164 -768 -154 -810 6 -23 21 -47 38 -59 28 -20 40 -21 453 -24 573
-4 535 -23 607 308 24 113 42 208 40 213 -2 4 -100 7 -216 7 -201 0 -214 -1
-252 -23 -22 -13 -49 -40 -62 -62 -13 -22 -23 -37 -23 -33 0 8 28 140 120 568
149 695 181 851 175 860 -7 12 -373 12 -420 1z m122 -1463 c-3 -8 -6 -5 -6 6
-1 11 2 17 5 13 3 -3 4 -12 1 -19z"/>
<path d="M2323 2878 c-5 -7 -51 -206 -101 -443 -50 -236 -133 -621 -182 -854
-59 -271 -89 -433 -85 -451 8 -38 50 -78 89 -85 17 -3 218 -5 447 -3 l415 3
40 26 c22 14 47 41 57 60 9 19 53 203 96 409 44 206 123 577 176 824 53 247
97 465 98 485 l2 36 -240 3 c-132 1 -250 0 -262 -3 -15 -3 -23 -13 -24 -28 -1
-21 -1 -20 -8 3 l-7 25 -251 3 c-193 2 -252 -1 -260 -10z m514 -80 c-3 -8 -6
-5 -6 6 -1 11 2 17 5 13 3 -3 4 -12 1 -19z m-10 -50 c-3 -7 -5 -2 -5 12 0 14
2 19 5 13 2 -7 2 -19 0 -25z m-10 -40 c-3 -8 -6 -5 -6 6 -1 11 2 17 5 13 3 -3
4 -12 1 -19z m-10 -50 c-3 -7 -5 -2 -5 12 0 14 2 19 5 13 2 -7 2 -19 0 -25z
m-10 -50 c-3 -7 -5 -2 -5 12 0 14 2 19 5 13 2 -7 2 -19 0 -25z m-10 -50 c-3
-7 -5 -2 -5 12 0 14 2 19 5 13 2 -7 2 -19 0 -25z m-13 -62 c-3 -21 -8 -35 -11
-32 -2 2 -1 20 3 40 3 21 8 35 11 32 2 -2 1 -20 -3 -40z m-17 -78 c-3 -7 -5
-2 -5 12 0 14 2 19 5 13 2 -7 2 -19 0 -25z m-10 -40 c-3 -8 -6 -5 -6 6 -1 11
2 17 5 13 3 -3 4 -12 1 -19z m-10 -50 c-3 -7 -5 -2 -5 12 0 14 2 19 5 13 2 -7
2 -19 0 -25z m-10 -40 c-3 -8 -6 -5 -6 6 -1 11 2 17 5 13 3 -3 4 -12 1 -19z
m-10 -50 c-3 -8 -6 -5 -6 6 -1 11 2 17 5 13 3 -3 4 -12 1 -19z m-10 -50 c-3
-8 -6 -5 -6 6 -1 11 2 17 5 13 3 -3 4 -12 1 -19z m-13 -62 c-3 -21 -8 -35 -11
-32 -2 2 -1 20 3 40 3 21 8 35 11 32 2 -2 1 -20 -3 -40z m-17 -78 c-3 -7 -5
-2 -5 12 0 14 2 19 5 13 2 -7 2 -19 0 -25z m-13 -62 c-3 -21 -8 -35 -11 -32
-2 2 -1 20 3 40 3 21 8 35 11 32 2 -2 1 -20 -3 -40z m-17 -78 c-3 -7 -5 -2 -5
12 0 14 2 19 5 13 2 -7 2 -19 0 -25z m-10 -50 c-3 -7 -5 -2 -5 12 0 14 2 19 5
13 2 -7 2 -19 0 -25z m-10 -40 c-3 -8 -6 -5 -6 6 -1 11 2 17 5 13 3 -3 4 -12
1 -19z m-10 -50 c-3 -8 -6 -5 -6 6 -1 11 2 17 5 13 3 -3 4 -12 1 -19z m-10
-50 c-3 -7 -5 -2 -5 12 0 14 2 19 5 13 2 -7 2 -19 0 -25z m-10 -40 c-3 -8 -6
-5 -6 6 -1 11 2 17 5 13 3 -3 4 -12 1 -19z m-10 -50 c-3 -8 -6 -5 -6 6 -1 11
2 17 5 13 3 -3 4 -12 1 -19z m-10 -40 c-3 -8 -6 -5 -6 6 -1 11 2 17 5 13 3 -3
4 -12 1 -19z m-10 -50 c-3 -8 -6 -5 -6 6 -1 11 2 17 5 13 3 -3 4 -12 1 -19z
m-10 -50 c-3 -7 -5 -2 -5 12 0 14 2 19 5 13 2 -7 2 -19 0 -25z m-10 -50 c-3
-7 -5 -2 -5 12 0 14 2 19 5 13 2 -7 2 -19 0 -25z"/>
<path d="M3504 2880 c-44 -10 -91 -46 -111 -83 -20 -40 -183 -808 -183 -867 0
-76 41 -125 120 -141 25 -5 8 -7 -56 -8 -60 -1 -95 -5 -102 -13 -11 -14 -132
-578 -132 -616 0 -39 29 -83 65 -98 53 -22 840 -21 893 2 48 20 89 59 102 98
25 76 170 793 170 840 0 63 -27 109 -80 137 -27 15 -57 19 -140 19 -196 1
-241 24 -239 123 l2 52 6 -45 c9 -61 25 -86 62 -99 30 -10 439 -17 439 -7 0 3
27 131 60 284 33 154 60 297 60 317 0 49 -32 92 -78 105 -43 11 -809 12 -858
0z m353 -392 c-3 -8 -6 -5 -6 6 -1 11 2 17 5 13 3 -3 4 -12 1 -19z m-228 -724
c26 -19 52 -72 50 -106 -1 -14 -5 -6 -10 18 -11 48 -45 83 -91 94 l-33 8 30 1
c17 1 41 -6 54 -15z"/>
<path d="M4492 2873 c-15 -29 -74 -323 -68 -338 4 -12 30 -15 127 -15 l121 0
-7 -48 c-12 -92 -52 -227 -65 -224 -23 5 -50 -9 -50 -28 0 -28 20 -35 21 -8 0
17 4 13 15 -17 13 -37 13 -49 -11 -157 -14 -65 -25 -122 -26 -126 0 -4 -9 14
-19 40 -20 49 -17 101 8 169 7 17 7 39 -1 67 -13 49 3 170 25 187 7 5 20 19
28 30 14 19 14 19 -2 6 -16 -12 -18 -11 -18 3 0 9 6 16 14 16 14 0 26 21 26
46 0 8 -3 14 -7 14 -11 0 -30 -42 -68 -148 -19 -52 -36 -96 -39 -100 -3 -3 -6
-16 -6 -29 0 -14 -4 -32 -9 -41 -5 -9 -11 -48 -14 -87 -3 -38 -3 -60 -1 -47 4
15 11 22 19 18 8 -3 16 3 18 12 4 16 5 16 6 0 0 -9 -3 -19 -8 -22 -5 -4 -7
-58 -4 -126 4 -81 2 -124 -5 -133 -7 -8 -13 -65 -15 -133 -3 -96 -13 -159 -51
-329 -26 -115 -48 -226 -49 -245 l-2 -35 62 -3 62 -3 4 -37 4 -37 1 38 c1 25
7 37 17 37 8 0 15 -6 15 -14 0 -8 4 -17 9 -20 5 -4 7 3 4 14 -5 17 0 20 32 20
36 0 37 -1 30 -27 -4 -16 -9 -85 -12 -154 l-5 -127 -61 -50 c-140 -113 -267
-277 -267 -344 0 -38 27 -80 62 -99 31 -17 283 -59 353 -59 33 0 112 9 175 19
159 26 345 45 381 37 28 -5 187 -108 251 -161 15 -13 48 -31 74 -41 46 -17 47
-17 88 4 26 14 59 22 91 22 75 0 145 49 117 83 -5 6 -13 32 -17 57 -6 37 -18
55 -69 106 -57 56 -63 65 -75 129 -12 59 -12 70 0 74 61 20 98 140 60 192 -39
52 -51 99 -51 190 0 96 -14 146 -61 214 -36 52 -125 91 -240 104 -46 5 -104
17 -128 25 -38 14 -42 14 -31 1 20 -24 1 -18 -52 16 -62 40 -80 67 -111 164
-52 168 -56 237 -23 415 16 87 134 647 142 673 5 15 20 17 134 17 71 0 131 3
133 8 3 4 21 83 41 176 29 134 34 171 24 178 -7 4 -243 8 -525 8 -478 0 -513
-1 -521 -17z m548 -1323 c5 -19 11 -78 13 -130 l4 -95 -12 70 -13 70 -1 -62
c-1 -87 33 -254 64 -311 14 -26 50 -76 81 -112 66 -79 94 -133 94 -186 0 -48
-46 -148 -84 -184 l-27 -24 18 39 c13 30 17 66 17 148 l0 108 -81 162 c-105
208 -116 245 -117 377 -1 100 24 251 31 190 2 -14 8 -41 13 -60z m-50 -405 c1
-43 -13 -113 -35 -168 -27 -70 -29 -51 -4 44 16 65 20 103 16 169 l-4 85 13
-50 c7 -27 14 -63 14 -80z m441 5 c67 -34 115 -70 93 -70 -4 0 2 -11 14 -23
41 -44 51 -129 18 -156 -11 -9 -11 -4 -3 27 6 21 7 51 3 66 -10 41 -92 117
-177 165 -88 50 -55 44 52 -9z m-95 -106 c18 -14 18 -14 -6 -3 -31 14 -36 19
-24 19 6 0 19 -7 30 -16z m-586 -24 c0 -17 -5 -19 -32 -14 -49 8 -58 12 -58
24 0 5 20 10 45 10 38 0 45 -3 45 -20z m77 -32 c-2 -13 -4 -5 -4 17 -1 22 1
32 4 23 2 -10 2 -28 0 -40z m573 37 c0 -8 -4 -15 -10 -15 -5 0 -10 7 -10 15 0
8 5 15 10 15 6 0 10 -7 10 -15z m-553 -117 c-3 -8 -6 -5 -6 6 -1 11 2 17 5 13
3 -3 4 -12 1 -19z m67 -57 c-4 -22 -1 -54 5 -72 9 -26 9 -29 -3 -20 -21 18
-28 59 -16 97 15 46 22 43 14 -5z m-297 -162 c-7 -4 -23 -10 -37 -13 -25 -7
-25 -7 4 19 22 20 31 23 37 13 5 -7 3 -15 -4 -19z"/>
<path d="M4452 1985 c0 -16 2 -22 5 -12 2 9 2 23 0 30 -3 6 -5 -1 -5 -18z"/>
<path d="M4442 1920 c0 -14 2 -19 5 -12 2 6 2 18 0 25 -3 6 -5 1 -5 -13z"/>
<path d="M4482 1850 c0 -19 2 -27 5 -17 2 9 2 25 0 35 -3 9 -5 1 -5 -18z"/>
<path d="M5160 1397 c0 -19 42 -87 66 -106 42 -33 49 -24 13 17 -19 20 -44 51
-56 67 -12 17 -23 26 -23 22z"/>
<path d="M4492 910 c0 -14 2 -19 5 -12 2 6 2 18 0 25 -3 6 -5 1 -5 -13z"/>
<path d="M4491 864 c0 -11 3 -14 6 -6 3 7 2 16 -1 19 -3 4 -6 -2 -5 -13z"/>
<path d="M4480 818 c0 -3 7 -21 15 -39 16 -34 16 -34 10 -4 -6 26 -25 60 -25
43z"/>
</g>
</svg>
