<?xml version="1.0" standalone="no"?>
<!DOCTYPE svg PUBLIC "-//W3C//DTD SVG 20010904//EN"
 "http://www.w3.org/TR/2001/REC-SVG-20010904/DTD/svg10.dtd">
<svg version="1.0" xmlns="http://www.w3.org/2000/svg"
 width="640.000000pt" height="360.000000pt" viewBox="0 0 640.000000 360.000000"
 preserveAspectRatio="xMidYMid meet">

<g transform="translate(0.000000,360.000000) scale(0.100000,-0.100000)"
fill="#000000" stroke="none">
<path d="M1230 3079 c-37 -15 -98 -78 -110 -113 -11 -37 -360 -1676 -360
-1695 0 -29 35 -84 64 -102 29 -18 58 -19 484 -19 500 0 493 -1 549 64 36 40
43 43 43 20 0 -9 15 -31 34 -50 l34 -34 461 0 c510 0 502 -1 558 64 36 40 43
43 43 20 0 -9 15 -31 34 -50 31 -31 40 -34 91 -34 49 0 56 -2 51 -17 -2 -10
-10 -43 -16 -73 -8 -44 -16 -57 -37 -67 -18 -9 -31 -9 -45 -2 -12 6 -78 9
-168 7 -125 -3 -151 -6 -168 -21 -24 -22 -66 -208 -60 -268 2 -26 -1 -39 -8
-39 -7 0 -17 -24 -24 -52 -6 -29 -13 -62 -16 -74 -4 -15 2 -30 15 -43 19 -19
32 -21 175 -21 132 0 157 2 175 18 25 21 64 186 59 247 -3 28 1 44 14 57 10
10 18 27 18 38 0 11 5 20 10 20 15 0 12 -25 -20 -179 -32 -149 -31 -169 10
-191 24 -13 177 -13 185 0 4 7 12 7 25 0 22 -12 346 -14 353 -2 3 4 22 86 42
182 35 163 47 201 60 189 3 -3 -9 -67 -25 -143 -17 -75 -30 -152 -30 -171 0
-60 19 -65 227 -65 120 0 183 4 183 10 0 7 6 7 19 0 25 -13 306 -13 331 0 13
7 21 7 25 0 8 -13 372 -14 380 -1 9 16 95 430 95 461 0 19 -7 33 -19 40 -26
13 -348 14 -356 0 -4 -7 -13 -6 -27 1 -13 7 -77 10 -183 8 -90 -2 -161 0 -158
4 5 9 32 115 33 130 0 4 -46 6 -102 5 l-102 -3 -12 -60 c-7 -33 -10 -63 -8
-67 3 -5 -2 -8 -12 -8 -17 0 -17 13 2 108 6 29 4 32 -17 32 -20 1 -18 4 16 21
58 29 93 66 109 118 8 25 53 231 101 457 98 467 98 463 24 537 -21 22 -39 41
-39 43 0 2 29 4 64 4 38 0 68 5 72 11 4 7 23 88 43 182 l37 170 129 -2 c72 -1
131 -4 133 -6 2 -1 -67 -334 -153 -739 -86 -405 -155 -747 -153 -759 l3 -22
277 -3 c256 -2 278 -1 286 15 5 10 80 354 167 766 l159 747 127 0 c95 0 131 4
141 14 18 17 91 357 82 379 -6 16 -49 17 -563 15 l-556 -3 -9 -42 c-11 -46
-21 -54 -31 -23 -3 10 -20 31 -36 45 l-31 25 -454 0 c-491 0 -490 0 -548 -55
l-29 -27 6 30 c4 19 1 34 -7 41 -9 7 -185 11 -565 11 -449 0 -553 -3 -557 -13
-3 -8 -69 -314 -147 -681 l-143 -668 -207 1 c-215 2 -269 -5 -319 -41 -18 -12
-28 -15 -28 -7 0 7 66 319 146 695 81 376 144 690 141 699 -6 13 -38 15 -234
14 -125 0 -239 -5 -253 -10z m2018 -1111 l26 -28 -53 0 c-50 0 -53 1 -47 23 3
12 9 40 13 62 l6 40 15 -35 c7 -19 25 -47 40 -62z m-737 -458 c16 0 29 3 29 8
0 4 110 6 245 4 225 -2 245 -1 245 14 0 10 2 15 5 12 3 -2 -7 -65 -22 -139
-26 -130 -28 -135 -68 -176 l-42 -43 -460 0 -460 0 -20 23 c-34 38 -35 57 -7
184 l27 123 244 0 c224 0 243 1 244 18 1 11 3 9 6 -5 3 -18 11 -23 34 -23z
m-1130 0 c16 0 29 3 29 8 0 4 109 6 242 4 188 -2 243 0 250 10 7 9 8 7 4 -7
-2 -11 -14 -69 -26 -130 -25 -123 -41 -157 -86 -186 -30 -18 -54 -19 -482 -19
l-451 0 -26 23 c-34 29 -35 60 -5 200 l23 107 244 0 c187 0 243 3 244 13 1 6
3 4 6 -5 3 -12 14 -18 34 -18z m2540 10 c221 0 239 -1 239 -17 0 -10 -11 -67
-25 -127 -26 -114 -43 -144 -97 -172 -22 -11 -110 -14 -476 -14 l-449 0 -20
23 c-34 38 -35 56 -7 186 l27 126 46 -2 c25 -2 151 -4 279 -6 202 -2 232 -1
233 13 0 10 2 11 6 3 3 -10 62 -13 244 -13z m1089 -5 c0 -5 -14 -81 -32 -167
l-32 -158 -249 0 -249 0 5 23 c3 12 20 87 37 167 l32 145 244 0 c156 0 244 -4
244 -10z m-1160 -377 c-1 -17 -28 -130 -32 -131 -2 -1 -14 -8 -27 -15 -17 -10
-26 -11 -34 -3 -14 14 -301 15 -325 2 -11 -6 -23 -5 -34 3 -15 11 -15 18 -2
74 8 35 12 67 9 72 -4 6 79 10 219 10 174 0 226 -3 226 -12z m-483 -320 c-7
-59 -38 -181 -48 -192 -18 -20 -17 3 6 109 13 61 24 113 25 118 0 4 5 7 11 7
7 0 9 -15 6 -42z m623 -89 c-13 -60 -27 -109 -32 -109 -4 0 -8 8 -8 18 0 24
39 203 47 216 17 26 14 -26 -7 -125z m-1114 -129 c8 0 14 8 15 18 0 10 3 12 6
5 6 -17 143 -18 143 -1 0 6 2 9 4 7 10 -9 -17 -105 -32 -116 -17 -14 -275 -19
-306 -7 -16 6 -21 41 -10 82 6 20 12 22 80 22 52 0 74 4 75 13 1 6 3 4 6 -5 2
-10 11 -18 19 -18z m314 10 c31 0 72 -3 89 -6 26 -5 30 -10 26 -30 -17 -81 -8
-74 -86 -74 -106 0 -120 13 -102 101 3 19 8 28 11 21 2 -8 25 -12 62 -12z
m747 -10 c12 0 13 -8 8 -42 -4 -24 -9 -46 -12 -50 -8 -14 -148 -9 -167 5 -15
11 -18 22 -12 58 l6 44 75 -3 c57 -3 75 0 76 10 1 7 3 5 6 -4 2 -10 11 -18 20
-18z m135 10 l70 0 -7 -47 c-4 -27 -9 -51 -12 -55 -2 -5 -38 -8 -79 -8 -57 0
-74 3 -74 14 0 27 24 119 28 107 2 -7 30 -11 74 -11z m203 0 c44 -1 82 -1 85
-1 3 1 40 3 83 4 l78 2 -6 -40 c-11 -69 -27 -75 -190 -75 -168 0 -171 1 -153
79 6 28 14 47 17 42 3 -5 42 -10 86 -11z m369 2 l68 3 -7 -44 c-11 -72 -9 -71
-95 -71 l-78 0 14 58 c7 31 14 62 14 67 0 6 4 4 9 -3 6 -10 27 -13 75 -10z
m-1144 -3 c3 -3 47 -3 98 0 89 6 93 5 88 -14 -2 -11 -8 -37 -11 -57 l-7 -38
-157 0 c-86 0 -162 4 -170 9 -10 7 -12 20 -7 52 4 23 8 45 10 48 5 8 149 8
156 0z m1395 -21 c-3 -16 -8 -41 -11 -58 l-6 -30 -79 0 c-72 0 -80 2 -75 18 2
9 8 33 11 52 4 19 9 37 10 40 2 3 37 5 79 5 l76 0 -5 -27z"/>
<path d="M6027 218 c-22 -81 -38 -150 -35 -153 2 -2 15 -1 29 2 24 4 27 11 38
76 7 40 14 84 17 100 5 22 2 27 -14 27 -16 0 -24 -11 -35 -52z"/>
<path d="M6132 247 c-38 -40 -29 -57 29 -57 43 0 50 -3 45 -16 -3 -9 -9 -33
-12 -55 -6 -37 -5 -39 19 -39 24 0 27 5 38 60 10 53 14 60 35 60 19 0 24 5 24
25 0 18 -5 25 -20 25 -11 0 -20 5 -20 10 0 6 -9 10 -20 10 -11 0 -20 -7 -20
-15 0 -9 -9 -15 -21 -15 -15 0 -19 5 -15 15 9 24 -37 18 -62 -8z"/>
</g>
</svg>
